<svg width="365" height="95" viewBox="0 0 365 95" fill="none" xmlns="http://www.w3.org/2000/svg">
<path d="M260.681 32.0119C260.78 37.6879 260.565 43.4295 260.713 49.1398C262.851 47.3387 264.659 46.2044 267.42 45.5864C271.573 44.6745 275.911 45.4993 279.466 47.877C283.135 50.3345 285.69 54.1897 286.569 58.5857C287.725 64.1941 286.504 68.6037 283.55 73.2482C275.189 84.388 256.498 81.3812 253.498 66.8969C252.722 63.1519 253.083 56.9058 253.091 52.8635L253.115 32L260.681 32.0119ZM279.885 62.0148C279.543 56.4288 274.852 52.177 269.392 52.506C263.906 52.8367 259.725 57.6681 260.067 63.2829C260.411 68.8977 265.147 73.1586 270.631 72.7871C276.089 72.4177 280.226 67.6011 279.885 62.0148Z" fill="black"/>
<path d="M307.522 45.1163C312.593 44.4847 317.718 46.4609 321.324 50.1753C326.508 55.5138 325.993 61.5588 325.981 68.4653L325.952 79.2481L318.491 79.2403L318.437 75.6891C316.583 77.4503 315.389 78.311 313.053 79.2095C303.292 82.5414 293.391 74.8961 292.135 64.6192C291.563 59.9845 292.827 55.3078 295.638 51.6421C298.728 47.6423 302.674 45.6947 307.522 45.1163ZM318.925 62.0221C318.663 56.378 313.994 52.0305 308.516 52.3292C303.076 52.6258 298.891 57.3931 299.152 62.9971C299.412 68.6011 304.021 72.9353 309.463 72.6951C314.943 72.4532 319.188 67.666 318.925 62.0221Z" fill="black"/>
<path d="M239.905 46L249 46.0383L227.856 92L219.009 91.9854C220.708 87.8604 223.123 83.0775 225.012 78.8802L221.778 71.7225C217.802 63.1926 213.874 54.6409 210 46.0677C213.082 45.9894 216.268 46.0325 219.358 46.0375C222.793 53.9899 226.174 61.9642 229.498 69.9597C232.872 61.9351 236.341 53.948 239.905 46Z" fill="#5029F3"/>
<path d="M179.745 46L187.907 46.0132L187.909 57.2288C187.945 63.6298 188.856 71.2777 184.029 76.2558C178.035 82.4369 165.107 82.6303 159.009 76.5292C157.305 74.818 156.106 72.6612 155.548 70.3007C154.815 67.2864 155.028 62.444 155.03 59.1518L155.052 46.0296L159.258 46.0249C160.544 46.0053 161.879 46.0266 163.172 46.0284L163.156 59.2719C163.15 63.0532 162.496 68.5173 165.27 71.3974C168.078 74.3687 174.69 74.3547 177.537 71.4931C180.423 68.5923 179.745 63.1438 179.743 59.3064L179.745 46Z" fill="#5029F3"/>
<path d="M97.9007 34.0172C100.649 33.9828 103.447 34.0106 106.199 34.0104C106.237 37.8518 106.252 41.6932 106.244 45.5345L116.594 45.5501L116.581 52.6458L106.23 52.6552C106.217 57.6055 106.13 62.7373 106.273 67.6794C106.318 69.2604 106.94 71.4695 108.24 72.4312C111.084 74.5333 113.882 73.1167 116.648 72.7192C116.911 73.2864 116.851 74.3049 116.862 74.9745C116.982 76.6205 116.988 78.1214 117 79.7678C114.965 80.5755 112.8 80.9932 110.615 80.9998C107.166 81.0165 103.788 80.1139 101.301 77.5724C97.2981 73.4833 97.8463 67.5749 97.864 62.2689L97.8703 52.6707L92.0036 52.6223L92 45.5552L97.8773 45.5474L97.9007 34.0172Z" fill="#5029F3"/>
<path d="M198.018 32.0012L206 32L205.988 79.9835L198 80L198.018 32.0012Z" fill="#5029F3"/>
<path d="M139.042 45C142.776 45.026 145.003 45.5126 148 47.657C147.189 49.796 146.398 51.941 145.622 54.0917C140.752 51.2527 134.088 51.7896 132.864 58.0455C132.383 60.5003 132.575 63.7602 132.584 66.2906L132.61 78.0494L132.594 79.987L124.072 80L124.048 66.2281C124.042 62.9615 123.784 59.1773 124.528 56.0172C126.269 48.6293 131.747 45.4702 139.042 45Z" fill="#5029F3"/>
<path d="M344.064 79.504C336.682 78.2371 330.833 72.0117 330.115 64.697C329.366 57.0684 332.284 51.1899 338.885 47.2407C343.979 44.1928 351.16 44.0482 356.264 48.0888C356.533 48.3012 356.82 48.4904 357.264 48.8094C357.315 47.6992 357.36 46.7306 357.409 45.6622C359.919 45.6622 362.372 45.6622 364.872 45.6622C364.909 45.8818 364.969 46.077 364.969 46.2722C364.971 56.7763 365.059 67.2815 364.929 77.7841C364.858 83.5124 362.593 88.3722 357.81 91.7681C353.475 94.8462 348.542 95.5005 343.362 94.6695C339.142 93.9924 335.604 92.1153 332.951 88.7293C331.896 87.3836 331.161 85.8808 330.66 84.1283C333.068 83.6641 335.371 83.2021 337.686 82.8019C337.918 82.7617 338.367 83.0352 338.461 83.2656C340.705 88.7387 350.376 90.0076 354.779 84.8285C356.528 82.7713 357.652 78.9698 357.214 75.7208C353.509 79.3545 349.014 80.088 344.064 79.504ZM338.094 59.1066C337.512 60.96 337.486 62.8337 337.833 64.7347C338.895 70.5593 345.015 74.1296 350.67 72.2866C354.274 71.1118 357.748 67.3284 357.545 61.8983C357.363 57.0324 354.033 52.9942 349.374 52.2957C344.246 51.527 339.722 54.2084 338.094 59.1066Z" fill="black"/>
<path d="M61.4491 43.5C61.4228 43.8834 61.4394 44.2693 61.4995 44.6502L68.5094 89.082C68.9996 92.1892 66.6018 95 63.4607 95H5.11161C2.16046 95 -0.177573 92.504 0.0106152 89.5545L3.81619 29.9084C3.98814 27.2135 6.22082 25.1158 8.91719 25.1158H61.4681L34.1596 70.4244C33.251 71.9318 31.482 72.6889 29.7662 72.3046L12.0285 68.331C11.1723 68.1392 10.6564 69.2489 11.3541 69.7817L32.2684 85.7516C34.2919 87.2966 37.2179 86.6354 38.3829 84.3699L62.6313 37.2148L62.6258 37.2434L68.5919 25.6415C68.7105 25.4108 68.8477 25.1968 69 25L61.4491 43.5Z" fill="#5029F3"/>
<path d="M33.491 0.0686157C40.7076 -0.558369 47.0089 3.14659 50.2768 9.74392C52.3742 13.9783 51.9736 18.415 51.9623 23C50.1479 22.9594 48.2748 22.9708 46.4548 22.9588C46.2574 18.2681 47.1721 14.4041 44.0855 10.181C42.1524 7.53626 39.6513 6.19833 36.4927 5.71128C36.0627 5.66541 35.631 5.6417 35.1987 5.64015C32.1306 5.60342 29.1768 6.82337 27.0012 9.02579C23.0233 13.0732 23.5375 17.7674 23.5808 22.986L18.061 22.9452C17.9484 16.9484 17.6028 12.097 21.4513 6.99693C24.6186 2.79967 28.4279 0.791611 33.491 0.0686157Z" fill="#5029F3"/>
</svg>
